<?xml version="1.0" encoding="UTF-8" standalone="no"?>
<svg
   sodipodi:docname="graphics.svg"
   id="svg8"
   version="1.1"
   viewBox="0 0 211.66666 119.0625"
   height="450"
   width="800"
   inkscape:version="1.2 (dc2aedaf03, 2022-05-15)"
   inkscape:export-filename="res\tile_spr.png"
   inkscape:export-xdpi="96"
   inkscape:export-ydpi="96"
   xmlns:inkscape="http://www.inkscape.org/namespaces/inkscape"
   xmlns:sodipodi="http://sodipodi.sourceforge.net/DTD/sodipodi-0.dtd"
   xmlns="http://www.w3.org/2000/svg"
   xmlns:svg="http://www.w3.org/2000/svg"
   xmlns:rdf="http://www.w3.org/1999/02/22-rdf-syntax-ns#"
   xmlns:cc="http://creativecommons.org/ns#"
   xmlns:dc="http://purl.org/dc/elements/1.1/">
  <defs
     id="defs2">
    <inkscape:path-effect
       effect="fillet_chamfer"
       id="path-effect6451"
       is_visible="true"
       lpeversion="1"
       nodesatellites_param="F,0,0,1,0,3,0,1 @ F,0,0,1,0,3,0,1 @ F,0,0,1,0,3,0,1"
       unit="px"
       method="auto"
       mode="F"
       radius="3"
       chamfer_steps="1"
       flexible="false"
       use_knot_distance="true"
       apply_no_radius="true"
       apply_with_radius="true"
       only_selected="false"
       hide_knots="false" />
    <inkscape:path-effect
       effect="fillet_chamfer"
       id="path-effect6378"
       is_visible="true"
       lpeversion="1"
       nodesatellites_param="F,0,1,1,0,4.5,0,1 @ F,0,0,1,0,1.5,0,1 @ F,0,0,1,0,1.5,0,1 @ F,0,0,1,0,1.5,0,1"
       unit="px"
       method="auto"
       mode="F"
       radius="4.5"
       chamfer_steps="1"
       flexible="false"
       use_knot_distance="true"
       apply_no_radius="true"
       apply_with_radius="true"
       only_selected="true"
       hide_knots="false" />
    <inkscape:path-effect
       effect="fillet_chamfer"
       id="path-effect6430"
       is_visible="true"
       lpeversion="1"
       satellites_param="F,0,0,1,0,1,0,1 @ F,0,0,1,0,1,0,1 @ F,0,0,1,0,1,0,1 @ F,0,0,1,0,1,0,1 @ F,0,0,1,0,1,0,1 @ F,0,0,1,0,1,0,1 @ F,0,0,1,0,1,0,1 @ F,0,0,1,0,1,0,1 @ F,0,0,1,0,1,0,1 @ F,0,0,1,0,1,0,1 @ F,0,0,1,0,1,0,1 @ F,0,0,1,0,1,0,1 @ F,0,0,1,0,1,0,1 @ F,0,0,1,0,1,0,1 @ F,0,0,1,0,1,0,1 @ F,0,0,1,0,1,0,1"
       unit="px"
       method="auto"
       mode="F"
       radius="1"
       chamfer_steps="1"
       flexible="false"
       use_knot_distance="true"
       apply_no_radius="true"
       apply_with_radius="true"
       only_selected="false"
       hide_knots="false"
       nodesatellites_param="F,0,0,1,0,1,0,1 @ F,0,0,1,0,1,0,1 @ F,0,0,1,0,1,0,1 @ F,0,0,1,0,1,0,1 @ F,0,0,1,0,1,0,1 @ F,0,0,1,0,1,0,1 @ F,0,0,1,0,1,0,1 @ F,0,0,1,0,1,0,1 @ F,0,0,1,0,1,0,1 @ F,0,0,1,0,1,0,1 @ F,0,0,1,0,1,0,1 @ F,0,0,1,0,1,0,1 @ F,0,0,1,0,1,0,1 @ F,0,0,1,0,1,0,1 @ F,0,0,1,0,1,0,1 @ F,0,0,1,0,1,0,1" />
    <inkscape:path-effect
       effect="fillet_chamfer"
       id="path-effect25243"
       is_visible="true"
       lpeversion="1"
       satellites_param="F,0,0,1,0,4,0,1 @ F,0,0,1,0,4,0,1 @ F,0,0,1,0,4,0,1 @ F,0,0,1,0,4,0,1 @ F,0,0,1,0,4,0,1 @ F,0,0,1,0,4,0,1 @ F,0,0,1,0,4,0,1 @ F,0,0,1,0,4,0,1 @ F,0,0,1,0,4,0,1 @ F,0,0,1,0,4,0,1 @ F,0,0,1,0,4,0,1 @ F,0,0,1,0,4,0,1 @ F,0,0,1,0,4,0,1 @ F,0,0,1,0,4,0,1 @ F,0,0,1,0,4,0,1 @ F,0,0,1,0,4,0,1 @ F,0,0,1,0,4,0,1 @ F,0,0,1,0,4,0,1 @ F,0,0,1,0,4,0,1 @ F,0,0,1,0,4,0,1 @ F,0,0,1,0,4,0,1 @ F,0,0,1,0,4,0,1 @ F,0,0,1,0,4,0,1 @ F,0,0,1,0,4,0,1 @ F,0,0,1,0,4,0,1 @ F,0,0,1,0,4,0,1 @ F,0,0,1,0,4,0,1 @ F,0,0,1,0,4,0,1 @ F,0,0,1,0,4,0,1 @ F,0,0,1,0,4,0,1 @ F,0,0,1,0,4,0,1 @ F,0,0,1,0,4,0,1 @ F,0,0,1,0,4,0,1 @ F,0,0,1,0,4,0,1 @ F,0,0,1,0,4,0,1 @ F,0,0,1,0,4,0,1 | F,0,0,1,0,4,0,1 @ F,0,0,1,0,4,0,1 @ F,0,0,1,0,4,0,1"
       unit="px"
       method="auto"
       mode="F"
       radius="4"
       chamfer_steps="1"
       flexible="false"
       use_knot_distance="true"
       apply_no_radius="true"
       apply_with_radius="true"
       only_selected="false"
       hide_knots="false"
       nodesatellites_param="F,0,0,1,0,4,0,1 @ F,0,0,1,0,4,0,1 @ F,0,0,1,0,4,0,1 @ F,0,0,1,0,4,0,1 @ F,0,0,1,0,4,0,1 @ F,0,0,1,0,4,0,1 @ F,0,0,1,0,4,0,1 @ F,0,0,1,0,4,0,1 @ F,0,0,1,0,4,0,1 @ F,0,0,1,0,4,0,1 @ F,0,0,1,0,4,0,1 @ F,0,0,1,0,4,0,1 @ F,0,0,1,0,4,0,1 @ F,0,0,1,0,4,0,1 @ F,0,0,1,0,4,0,1 @ F,0,0,1,0,4,0,1 @ F,0,0,1,0,4,0,1 @ F,0,0,1,0,4,0,1 @ F,0,0,1,0,4,0,1 @ F,0,0,1,0,4,0,1 @ F,0,0,1,0,4,0,1 @ F,0,0,1,0,4,0,1 @ F,0,0,1,0,4,0,1 @ F,0,0,1,0,4,0,1 @ F,0,0,1,0,4,0,1 @ F,0,0,1,0,4,0,1 @ F,0,0,1,0,4,0,1 @ F,0,0,1,0,4,0,1 @ F,0,0,1,0,4,0,1 @ F,0,0,1,0,4,0,1 @ F,0,0,1,0,4,0,1 @ F,0,0,1,0,4,0,1 @ F,0,0,1,0,4,0,1 @ F,0,0,1,0,4,0,1 @ F,0,0,1,0,4,0,1 @ F,0,0,1,0,4,0,1 | F,0,0,1,0,4,0,1 @ F,0,0,1,0,4,0,1 @ F,0,0,1,0,4,0,1" />
    <inkscape:path-effect
       effect="fillet_chamfer"
       id="path-effect24754"
       is_visible="true"
       lpeversion="1"
       satellites_param="F,0,0,1,0,2,0,1 @ F,0,0,1,0,2,0,1 @ F,0,0,1,0,2,0,1 @ F,0,0,1,0,2,0,1 @ F,0,0,1,0,2,0,1 @ F,0,0,1,0,2,0,1 @ F,0,0,1,0,2,0,1 @ F,0,0,1,0,2,0,1 @ F,0,0,1,0,2,0,1 @ F,0,0,1,0,2,0,1 @ F,0,0,1,0,2,0,1 @ F,0,0,1,0,2,0,1 @ F,0,0,1,0,2,0,1 @ F,0,0,1,0,2,0,1 @ F,0,0,1,0,2,0,1 @ F,0,0,1,0,2,0,1 @ F,0,0,1,0,2,0,1 @ F,0,0,1,0,2,0,1 @ F,0,0,1,0,2,0,1 @ F,0,0,1,0,2,0,1 @ F,0,0,1,0,2,0,1 @ F,0,0,1,0,2,0,1 @ F,0,0,1,0,2,0,1 @ F,0,0,1,0,2,0,1 @ F,0,0,1,0,2,0,1 @ F,0,0,1,0,2,0,1 @ F,0,0,1,0,2,0,1 @ F,0,0,1,0,2,0,1 @ F,0,0,1,0,2,0,1 @ F,0,0,1,0,2,0,1 @ F,0,0,1,0,2,0,1 @ F,0,0,1,0,2,0,1 @ F,0,0,1,0,2,0,1 @ F,0,0,1,0,2,0,1 @ F,0,0,1,0,2,0,1 @ F,0,0,1,0,2,0,1 @ F,0,0,1,0,2,0,1 @ F,0,0,1,0,2,0,1 @ F,0,0,1,0,2,0,1 @ F,0,0,1,0,2,0,1 @ F,0,0,1,0,2,0,1 @ F,0,0,1,0,2,0,1 @ F,0,0,1,0,2,0,1 @ F,0,0,1,0,2,0,1 @ F,0,0,1,0,2,0,1 @ F,0,0,1,0,2,0,1 @ F,0,0,1,0,2,0,1 @ F,0,0,1,0,2,0,1 @ F,0,0,1,0,2,0,1 @ F,0,0,1,0,2,0,1 @ F,0,0,1,0,2,0,1 @ F,0,0,1,0,2,0,1 @ F,0,0,1,0,2,0,1 @ F,0,0,1,0,2,0,1 @ F,0,0,1,0,2,0,1 @ F,0,0,1,0,2,0,1 @ F,0,0,1,0,2,0,1 @ F,0,0,1,0,2,0,1 @ F,0,0,1,0,2,0,1 @ F,0,0,1,0,2,0,1 @ F,0,0,1,0,2,0,1 @ F,0,0,1,0,2,0,1 @ F,0,0,1,0,2,0,1 @ F,0,0,1,0,2,0,1 @ F,0,0,1,0,2,0,1 @ F,0,0,1,0,2,0,1 @ F,0,0,1,0,2,0,1 @ F,0,0,1,0,2,0,1 @ F,0,0,1,0,2,0,1 @ F,0,0,1,0,2,0,1 @ F,0,0,1,0,2,0,1 @ F,0,0,1,0,2,0,1 @ F,0,0,1,0,2,0,1 @ F,0,0,1,0,2,0,1 @ F,0,0,1,0,2,0,1 @ F,0,0,1,0,2,0,1 @ F,0,0,1,0,2,0,1 | F,0,0,1,0,2,0,1 @ F,0,0,1,0,2,0,1 @ F,0,0,1,0,2,0,1 @ F,0,0,1,0,2,0,1 @ F,0,0,1,0,2,0,1 @ F,0,0,1,0,2,0,1 @ F,0,0,1,0,2,0,1"
       unit="px"
       method="auto"
       mode="F"
       radius="2"
       chamfer_steps="1"
       flexible="false"
       use_knot_distance="true"
       apply_no_radius="true"
       apply_with_radius="true"
       only_selected="false"
       hide_knots="false"
       nodesatellites_param="F,0,0,1,0,2,0,1 @ F,0,0,1,0,2,0,1 @ F,0,0,1,0,2,0,1 @ F,0,0,1,0,2,0,1 @ F,0,0,1,0,2,0,1 @ F,0,0,1,0,2,0,1 @ F,0,0,1,0,2,0,1 @ F,0,0,1,0,2,0,1 @ F,0,0,1,0,2,0,1 @ F,0,0,1,0,2,0,1 @ F,0,0,1,0,2,0,1 @ F,0,0,1,0,2,0,1 @ F,0,0,1,0,2,0,1 @ F,0,0,1,0,2,0,1 @ F,0,0,1,0,2,0,1 @ F,0,0,1,0,2,0,1 @ F,0,0,1,0,2,0,1 @ F,0,0,1,0,2,0,1 @ F,0,0,1,0,2,0,1 @ F,0,0,1,0,2,0,1 @ F,0,0,1,0,2,0,1 @ F,0,0,1,0,2,0,1 @ F,0,0,1,0,2,0,1 @ F,0,0,1,0,2,0,1 @ F,0,0,1,0,2,0,1 @ F,0,0,1,0,2,0,1 @ F,0,0,1,0,2,0,1 @ F,0,0,1,0,2,0,1 @ F,0,0,1,0,2,0,1 @ F,0,0,1,0,2,0,1 @ F,0,0,1,0,2,0,1 @ F,0,0,1,0,2,0,1 @ F,0,0,1,0,2,0,1 @ F,0,0,1,0,2,0,1 @ F,0,0,1,0,2,0,1 @ F,0,0,1,0,2,0,1 @ F,0,0,1,0,2,0,1 @ F,0,0,1,0,2,0,1 @ F,0,0,1,0,2,0,1 @ F,0,0,1,0,2,0,1 @ F,0,0,1,0,2,0,1 @ F,0,0,1,0,2,0,1 @ F,0,0,1,0,2,0,1 @ F,0,0,1,0,2,0,1 @ F,0,0,1,0,2,0,1 @ F,0,0,1,0,2,0,1 @ F,0,0,1,0,2,0,1 @ F,0,0,1,0,2,0,1 @ F,0,0,1,0,2,0,1 @ F,0,0,1,0,2,0,1 @ F,0,0,1,0,2,0,1 @ F,0,0,1,0,2,0,1 @ F,0,0,1,0,2,0,1 @ F,0,0,1,0,2,0,1 @ F,0,0,1,0,2,0,1 @ F,0,0,1,0,2,0,1 @ F,0,0,1,0,2,0,1 @ F,0,0,1,0,2,0,1 @ F,0,0,1,0,2,0,1 @ F,0,0,1,0,2,0,1 @ F,0,0,1,0,2,0,1 @ F,0,0,1,0,2,0,1 @ F,0,0,1,0,2,0,1 @ F,0,0,1,0,2,0,1 @ F,0,0,1,0,2,0,1 @ F,0,0,1,0,2,0,1 @ F,0,0,1,0,2,0,1 @ F,0,0,1,0,2,0,1 @ F,0,0,1,0,2,0,1 @ F,0,0,1,0,2,0,1 @ F,0,0,1,0,2,0,1 @ F,0,0,1,0,2,0,1 @ F,0,0,1,0,2,0,1 @ F,0,0,1,0,2,0,1 @ F,0,0,1,0,2,0,1 @ F,0,0,1,0,2,0,1 @ F,0,0,1,0,2,0,1 | F,0,0,1,0,2,0,1 @ F,0,0,1,0,2,0,1 @ F,0,0,1,0,2,0,1 @ F,0,0,1,0,2,0,1 @ F,0,0,1,0,2,0,1 @ F,0,0,1,0,2,0,1 @ F,0,0,1,0,2,0,1" />
    <inkscape:path-effect
       effect="fillet_chamfer"
       id="path-effect24133"
       is_visible="true"
       lpeversion="1"
       satellites_param="F,0,0,1,0,0,0,1 @ F,0,0,1,0,0,0,1 @ F,0,0,1,0,0,0,1 @ F,0,0,1,0,0,0,1 @ F,0,0,1,0,0,0,1 @ F,0,0,1,0,0,0,1 | F,0,0,1,0,0,0,1 @ F,0,0,1,0,0,0,1 @ F,0,0,1,0,0,0,1 | F,0,0,1,0,0,0,1 @ F,0,0,1,0,0,0,1 @ F,0,0,1,0,0,0,1 | F,0,0,1,0,0,0,1 @ F,0,0,1,0,0,0,1 @ F,0,0,1,0,0,0,1 | F,0,0,1,0,0,0,1 @ F,0,0,1,0,0,0,1 @ F,0,0,1,0,0,0,1 | F,0,0,1,0,0,0,1 @ F,0,0,1,0,0,0,1 @ F,0,0,1,0,0,0,1 | F,0,0,1,0,0,0,1 @ F,0,0,1,0,0,0,1 @ F,0,0,1,0,0,0,1 | F,0,0,1,0,0,0,1 @ F,0,0,1,0,0,0,1 @ F,0,0,1,0,0,0,1 @ F,0,0,1,0,0,0,1 | F,0,0,1,0,0,0,1 @ F,0,0,1,0,0,0,1 @ F,0,0,1,0,0,0,1 | F,0,0,1,0,0,0,1 @ F,0,0,1,0,0,0,1 @ F,0,0,1,0,0,0,1 | F,0,0,1,0,0,0,1 @ F,0,0,1,0,0,0,1 @ F,0,0,1,0,0,0,1"
       unit="px"
       method="auto"
       mode="F"
       radius="1"
       chamfer_steps="1"
       flexible="false"
       use_knot_distance="true"
       apply_no_radius="true"
       apply_with_radius="true"
       only_selected="false"
       hide_knots="false"
       nodesatellites_param="F,0,0,1,0,0,0,1 @ F,0,0,1,0,0,0,1 @ F,0,0,1,0,0,0,1 @ F,0,0,1,0,0,0,1 @ F,0,0,1,0,0,0,1 @ F,0,0,1,0,0,0,1 | F,0,0,1,0,0,0,1 @ F,0,0,1,0,0,0,1 @ F,0,0,1,0,0,0,1 | F,0,0,1,0,0,0,1 @ F,0,0,1,0,0,0,1 @ F,0,0,1,0,0,0,1 | F,0,0,1,0,0,0,1 @ F,0,0,1,0,0,0,1 @ F,0,0,1,0,0,0,1 | F,0,0,1,0,0,0,1 @ F,0,0,1,0,0,0,1 @ F,0,0,1,0,0,0,1 | F,0,0,1,0,0,0,1 @ F,0,0,1,0,0,0,1 @ F,0,0,1,0,0,0,1 | F,0,0,1,0,0,0,1 @ F,0,0,1,0,0,0,1 @ F,0,0,1,0,0,0,1 | F,0,0,1,0,0,0,1 @ F,0,0,1,0,0,0,1 @ F,0,0,1,0,0,0,1 @ F,0,0,1,0,0,0,1 | F,0,0,1,0,0,0,1 @ F,0,0,1,0,0,0,1 @ F,0,0,1,0,0,0,1 | F,0,0,1,0,0,0,1 @ F,0,0,1,0,0,0,1 @ F,0,0,1,0,0,0,1 | F,0,0,1,0,0,0,1 @ F,0,0,1,0,0,0,1 @ F,0,0,1,0,0,0,1" />
    <inkscape:path-effect
       effect="fillet_chamfer"
       id="path-effect23154"
       is_visible="true"
       lpeversion="1"
       satellites_param="F,0,0,1,0,0,0,1 @ F,0,0,1,0,0,0,1 @ F,0,0,1,0,0,0,1 @ F,0,0,1,0,0,0,1 @ F,0,0,1,0,0,0,1 @ F,0,0,1,0,0,0,1 | F,0,0,1,0,0,0,1 @ F,0,0,1,0,0,0,1 @ F,0,0,1,0,0,0,1 | F,0,0,1,0,0,0,1 @ F,0,0,1,0,0,0,1 @ F,0,0,1,0,0,0,1 | F,0,0,1,0,0,0,1 @ F,0,0,1,0,0,0,1 @ F,0,0,1,0,0,0,1 | F,0,0,1,0,0,0,1 @ F,0,0,1,0,0,0,1 @ F,0,0,1,0,0,0,1 | F,0,0,1,0,0,0,1 @ F,0,0,1,0,0,0,1 @ F,0,0,1,0,0,0,1 | F,0,0,1,0,0,0,1 @ F,0,0,1,0,0,0,1 @ F,0,0,1,0,0,0,1 | F,0,0,1,0,0,0,1 @ F,0,0,1,0,0,0,1 @ F,0,0,1,0,0,0,1 @ F,0,0,1,0,0,0,1 | F,0,0,1,0,0,0,1 @ F,0,0,1,0,0,0,1 @ F,0,0,1,0,0,0,1 @ F,0,0,1,0,2.2911759,0,1 | F,0,0,1,0,0,0,1 @ F,0,0,1,0,0,0,1 @ F,0,0,1,0,0,0,1 | F,0,0,1,0,0,0,1 @ F,0,0,1,0,0,0,1 @ F,0,0,1,0,0,0,1"
       unit="px"
       method="auto"
       mode="F"
       radius="1"
       chamfer_steps="1"
       flexible="false"
       use_knot_distance="true"
       apply_no_radius="true"
       apply_with_radius="true"
       only_selected="false"
       hide_knots="false"
       nodesatellites_param="F,0,0,1,0,0,0,1 @ F,0,0,1,0,0,0,1 @ F,0,0,1,0,0,0,1 @ F,0,0,1,0,0,0,1 @ F,0,0,1,0,0,0,1 @ F,0,0,1,0,0,0,1 | F,0,0,1,0,0,0,1 @ F,0,0,1,0,0,0,1 @ F,0,0,1,0,0,0,1 | F,0,0,1,0,0,0,1 @ F,0,0,1,0,0,0,1 @ F,0,0,1,0,0,0,1 | F,0,0,1,0,0,0,1 @ F,0,0,1,0,0,0,1 @ F,0,0,1,0,0,0,1 | F,0,0,1,0,0,0,1 @ F,0,0,1,0,0,0,1 @ F,0,0,1,0,0,0,1 | F,0,0,1,0,0,0,1 @ F,0,0,1,0,0,0,1 @ F,0,0,1,0,0,0,1 | F,0,0,1,0,0,0,1 @ F,0,0,1,0,0,0,1 @ F,0,0,1,0,0,0,1 | F,0,0,1,0,0,0,1 @ F,0,0,1,0,0,0,1 @ F,0,0,1,0,0,0,1 @ F,0,0,1,0,0,0,1 | F,0,0,1,0,0,0,1 @ F,0,0,1,0,0,0,1 @ F,0,0,1,0,0,0,1 @ F,0,0,1,0,2.2911759,0,1 | F,0,0,1,0,0,0,1 @ F,0,0,1,0,0,0,1 @ F,0,0,1,0,0,0,1 | F,0,0,1,0,0,0,1 @ F,0,0,1,0,0,0,1 @ F,0,0,1,0,0,0,1" />
    <inkscape:path-effect
       effect="fillet_chamfer"
       id="path-effect23152"
       is_visible="true"
       lpeversion="1"
       satellites_param="F,0,0,1,0,1,0,1 @ F,0,0,1,0,1,0,1 @ F,0,0,1,0,1,0,1 @ F,0,0,1,0,1,0,1 @ F,0,0,1,0,1,0,1 @ F,0,0,1,0,1,0,1 @ F,0,0,1,0,1,0,1 @ F,0,0,1,0,1,0,1"
       unit="px"
       method="auto"
       mode="F"
       radius="1"
       chamfer_steps="1"
       flexible="false"
       use_knot_distance="true"
       apply_no_radius="true"
       apply_with_radius="true"
       only_selected="false"
       hide_knots="false"
       nodesatellites_param="F,0,0,1,0,1,0,1 @ F,0,0,1,0,1,0,1 @ F,0,0,1,0,1,0,1 @ F,0,0,1,0,1,0,1 @ F,0,0,1,0,1,0,1 @ F,0,0,1,0,1,0,1 @ F,0,0,1,0,1,0,1 @ F,0,0,1,0,1,0,1" />
    <inkscape:path-effect
       effect="fillet_chamfer"
       id="path-effect17937"
       is_visible="true"
       lpeversion="1"
       satellites_param="F,0,0,1,0,4,0,1 @ F,0,0,1,0,4,0,1 @ F,0,0,1,0,4,0,1 @ F,0,0,1,0,4,0,1 @ F,0,0,1,0,4,0,1 @ F,0,0,1,0,4,0,1 @ F,0,0,1,0,4,0,1 @ F,0,0,1,0,4,0,1 @ F,0,0,1,0,4,0,1 @ F,0,0,1,0,4,0,1 @ F,0,0,1,0,4,0,1 @ F,0,0,1,0,4,0,1 @ F,0,0,1,0,4,0,1 @ F,0,0,1,0,4,0,1 @ F,0,0,1,0,4,0,1 @ F,0,0,1,0,4,0,1 @ F,0,0,1,0,4,0,1 @ F,0,0,1,0,4,0,1 @ F,0,0,1,0,4,0,1 @ F,0,0,1,0,4,0,1 @ F,0,0,1,0,4,0,1 @ F,0,0,1,0,4,0,1 @ F,0,0,1,0,4,0,1 @ F,0,0,1,0,4,0,1 @ F,0,0,1,0,4,0,1 @ F,0,0,1,0,4,0,1 @ F,0,0,1,0,4,0,1 @ F,0,0,1,0,4,0,1 @ F,0,0,1,0,4,0,1 @ F,0,0,1,0,4,0,1 @ F,0,0,1,0,4,0,1 @ F,0,0,1,0,4,0,1 @ F,0,0,1,0,4,0,1 @ F,0,0,1,0,4,0,1 @ F,0,0,1,0,4,0,1 @ F,0,0,1,0,4,0,1 | F,0,0,1,0,4,0,1 @ F,0,0,1,0,4,0,1 @ F,0,0,1,0,4,0,1 @ F,0,0,1,0,4,0,1 @ F,0,0,1,0,4,0,1 @ F,0,0,1,0,4,0,1 @ F,0,0,1,0,4,0,1 @ F,0,0,1,0,4,0,1 @ F,0,0,1,0,4,0,1 @ F,0,0,1,0,4,0,1 @ F,0,0,1,0,4,0,1 @ F,0,0,1,0,4,0,1 @ F,0,0,1,0,4,0,1 @ F,0,0,1,0,4,0,1 | F,0,0,1,0,4,0,1 @ F,0,0,1,0,4,0,1 @ F,0,0,1,0,4,0,1 @ F,0,0,1,0,4,0,1 @ F,0,0,1,0,4,0,1 @ F,0,0,1,0,4,0,1 @ F,0,0,1,0,4,0,1 @ F,0,0,1,0,4,0,1 @ F,0,0,1,0,4,0,1 @ F,0,0,1,0,4,0,1 @ F,0,0,1,0,4,0,1 | F,0,0,1,0,4,0,1 @ F,0,0,1,0,4,0,1 @ F,0,0,1,0,4,0,1 @ F,0,0,1,0,4,0,1 @ F,0,0,1,0,4,0,1 @ F,0,0,1,0,4,0,1 @ F,0,0,1,0,4,0,1 @ F,0,0,1,0,4,0,1 @ F,0,0,1,0,4,0,1 @ F,0,0,1,0,4,0,1 @ F,0,0,1,0,4,0,1 | F,0,0,1,0,4,0,1 @ F,0,0,1,0,4,0,1 @ F,0,0,1,0,4,0,1 @ F,0,0,1,0,4,0,1 @ F,0,0,1,0,4,0,1 @ F,0,0,1,0,4,0,1 @ F,0,0,1,0,4,0,1 @ F,0,0,1,0,4,0,1 | F,0,0,1,0,4,0,1 @ F,0,0,1,0,4,0,1 @ F,0,0,1,0,4,0,1 @ F,0,0,1,0,4,0,1 @ F,0,0,1,0,4,0,1 @ F,0,0,1,0,4,0,1 @ F,0,0,1,0,4,0,1 @ F,0,0,1,0,4,0,1 @ F,0,0,1,0,4,0,1 @ F,0,0,1,0,4,0,1 | F,0,0,1,0,4,0,1 @ F,0,0,1,0,4,0,1 @ F,0,0,1,0,4,0,1 @ F,0,0,1,0,4,0,1 @ F,0,0,1,0,4,0,1 @ F,0,0,1,0,4,0,1 @ F,0,0,1,0,4,0,1 @ F,0,0,1,0,4,0,1 | F,0,0,1,0,4,0,1 @ F,0,0,1,0,4,0,1 @ F,0,0,1,0,4,0,1 @ F,0,0,1,0,4,0,1 @ F,0,0,1,0,4,0,1 @ F,0,0,1,0,4,0,1 @ F,0,0,1,0,4,0,1 @ F,0,0,1,0,4,0,1 @ F,0,0,1,0,4,0,1 @ F,0,0,1,0,4,0,1 | F,0,0,1,0,4,0,1 @ F,0,0,1,0,4,0,1 @ F,0,0,1,0,4,0,1"
       unit="px"
       method="auto"
       mode="F"
       radius="4"
       chamfer_steps="1"
       flexible="false"
       use_knot_distance="true"
       apply_no_radius="true"
       apply_with_radius="true"
       only_selected="false"
       hide_knots="false"
       nodesatellites_param="F,0,0,1,0,4,0,1 @ F,0,0,1,0,4,0,1 @ F,0,0,1,0,4,0,1 @ F,0,0,1,0,4,0,1 @ F,0,0,1,0,4,0,1 @ F,0,0,1,0,4,0,1 @ F,0,0,1,0,4,0,1 @ F,0,0,1,0,4,0,1 @ F,0,0,1,0,4,0,1 @ F,0,0,1,0,4,0,1 @ F,0,0,1,0,4,0,1 @ F,0,0,1,0,4,0,1 @ F,0,0,1,0,4,0,1 @ F,0,0,1,0,4,0,1 @ F,0,0,1,0,4,0,1 @ F,0,0,1,0,4,0,1 @ F,0,0,1,0,4,0,1 @ F,0,0,1,0,4,0,1 @ F,0,0,1,0,4,0,1 @ F,0,0,1,0,4,0,1 @ F,0,0,1,0,4,0,1 @ F,0,0,1,0,4,0,1 @ F,0,0,1,0,4,0,1 @ F,0,0,1,0,4,0,1 @ F,0,0,1,0,4,0,1 @ F,0,0,1,0,4,0,1 @ F,0,0,1,0,4,0,1 @ F,0,0,1,0,4,0,1 @ F,0,0,1,0,4,0,1 @ F,0,0,1,0,4,0,1 @ F,0,0,1,0,4,0,1 @ F,0,0,1,0,4,0,1 @ F,0,0,1,0,4,0,1 @ F,0,0,1,0,4,0,1 @ F,0,0,1,0,4,0,1 @ F,0,0,1,0,4,0,1 | F,0,0,1,0,4,0,1 @ F,0,0,1,0,4,0,1 @ F,0,0,1,0,4,0,1 @ F,0,0,1,0,4,0,1 @ F,0,0,1,0,4,0,1 @ F,0,0,1,0,4,0,1 @ F,0,0,1,0,4,0,1 @ F,0,0,1,0,4,0,1 @ F,0,0,1,0,4,0,1 @ F,0,0,1,0,4,0,1 @ F,0,0,1,0,4,0,1 @ F,0,0,1,0,4,0,1 @ F,0,0,1,0,4,0,1 @ F,0,0,1,0,4,0,1 | F,0,0,1,0,4,0,1 @ F,0,0,1,0,4,0,1 @ F,0,0,1,0,4,0,1 @ F,0,0,1,0,4,0,1 @ F,0,0,1,0,4,0,1 @ F,0,0,1,0,4,0,1 @ F,0,0,1,0,4,0,1 @ F,0,0,1,0,4,0,1 @ F,0,0,1,0,4,0,1 @ F,0,0,1,0,4,0,1 @ F,0,0,1,0,4,0,1 | F,0,0,1,0,4,0,1 @ F,0,0,1,0,4,0,1 @ F,0,0,1,0,4,0,1 @ F,0,0,1,0,4,0,1 @ F,0,0,1,0,4,0,1 @ F,0,0,1,0,4,0,1 @ F,0,0,1,0,4,0,1 @ F,0,0,1,0,4,0,1 @ F,0,0,1,0,4,0,1 @ F,0,0,1,0,4,0,1 @ F,0,0,1,0,4,0,1 | F,0,0,1,0,4,0,1 @ F,0,0,1,0,4,0,1 @ F,0,0,1,0,4,0,1 @ F,0,0,1,0,4,0,1 @ F,0,0,1,0,4,0,1 @ F,0,0,1,0,4,0,1 @ F,0,0,1,0,4,0,1 @ F,0,0,1,0,4,0,1 | F,0,0,1,0,4,0,1 @ F,0,0,1,0,4,0,1 @ F,0,0,1,0,4,0,1 @ F,0,0,1,0,4,0,1 @ F,0,0,1,0,4,0,1 @ F,0,0,1,0,4,0,1 @ F,0,0,1,0,4,0,1 @ F,0,0,1,0,4,0,1 @ F,0,0,1,0,4,0,1 @ F,0,0,1,0,4,0,1 | F,0,0,1,0,4,0,1 @ F,0,0,1,0,4,0,1 @ F,0,0,1,0,4,0,1 @ F,0,0,1,0,4,0,1 @ F,0,0,1,0,4,0,1 @ F,0,0,1,0,4,0,1 @ F,0,0,1,0,4,0,1 @ F,0,0,1,0,4,0,1 | F,0,0,1,0,4,0,1 @ F,0,0,1,0,4,0,1 @ F,0,0,1,0,4,0,1 @ F,0,0,1,0,4,0,1 @ F,0,0,1,0,4,0,1 @ F,0,0,1,0,4,0,1 @ F,0,0,1,0,4,0,1 @ F,0,0,1,0,4,0,1 @ F,0,0,1,0,4,0,1 @ F,0,0,1,0,4,0,1 | F,0,0,1,0,4,0,1 @ F,0,0,1,0,4,0,1 @ F,0,0,1,0,4,0,1" />
    <inkscape:path-effect
       effect="fillet_chamfer"
       id="path-effect17916"
       is_visible="true"
       lpeversion="1"
       satellites_param="F,0,0,1,0,7,0,1 @ F,0,0,1,0,7,0,1 @ F,0,0,1,0,7,0,1 @ F,0,0,1,0,7,0,1 @ F,0,0,1,0,7,0,1 @ F,0,0,1,0,7,0,1 @ F,0,0,1,0,7,0,1 @ F,0,0,1,0,7,0,1 @ F,0,0,1,0,7,0,1 @ F,0,0,1,0,7,0,1 @ F,0,0,1,0,7,0,1 @ F,0,0,1,0,7,0,1 @ F,0,0,1,0,7,0,1 @ F,0,0,1,0,7,0,1 @ F,0,0,1,0,7,0,1 @ F,0,0,1,0,7,0,1 @ F,0,0,1,0,7,0,1 @ F,0,0,1,0,7,0,1 @ F,0,0,1,0,7,0,1 @ F,0,0,1,0,7,0,1 @ F,0,0,1,0,7,0,1 @ F,0,0,1,0,7,0,1 @ F,0,0,1,0,7,0,1 @ F,0,0,1,0,7,0,1 @ F,0,0,1,0,7,0,1 @ F,0,0,1,0,7,0,1 @ F,0,0,1,0,7,0,1 @ F,0,0,1,0,7,0,1 @ F,0,0,1,0,7,0,1 @ F,0,0,1,0,7,0,1 @ F,0,0,1,0,7,0,1 @ F,0,0,1,0,7,0,1 @ F,0,0,1,0,7,0,1 @ F,0,0,1,0,7,0,1 @ F,0,0,1,0,7,0,1 | F,0,0,1,0,7,0,1 @ F,0,0,1,0,7,0,1 @ F,0,0,1,0,7,0,1 @ F,0,0,1,0,7,0,1 @ F,0,0,1,0,7,0,1 @ F,0,0,1,0,7,0,1 @ F,0,0,1,0,7,0,1 @ F,0,0,1,0,7,0,1 @ F,0,0,1,0,7,0,1 @ F,0,0,1,0,7,0,1 @ F,0,0,1,0,7,0,1 @ F,0,0,1,0,7,0,1 @ F,0,0,1,0,7,0,1 @ F,0,0,1,0,7,0,1 | F,0,0,1,0,7,0,1 @ F,0,0,1,0,7,0,1 @ F,0,0,1,0,7,0,1 @ F,0,0,1,0,7,0,1 @ F,0,0,1,0,7,0,1 @ F,0,0,1,0,7,0,1 @ F,0,0,1,0,7,0,1 @ F,0,0,1,0,7,0,1 @ F,0,0,1,0,7,0,1 @ F,0,0,1,0,7,0,1 | F,0,0,1,0,7,0,1 @ F,0,0,1,0,7,0,1 @ F,0,0,1,0,7,0,1 @ F,0,0,1,0,7,0,1 @ F,0,0,1,0,7,0,1 @ F,0,0,1,0,7,0,1 @ F,0,0,1,0,7,0,1 @ F,0,0,1,0,7,0,1 @ F,0,0,1,0,7,0,1 @ F,0,0,1,0,7,0,1 | F,0,0,1,0,7,0,1 @ F,0,0,1,0,7,0,1 @ F,0,0,1,0,7,0,1 @ F,0,0,1,0,7,0,1 @ F,0,0,1,0,7,0,1 @ F,0,0,1,0,7,0,1 @ F,0,0,1,0,7,0,1 | F,0,0,1,0,7,0,1 @ F,0,0,1,0,7,0,1 @ F,0,0,1,0,7,0,1 @ F,0,0,1,0,7,0,1 @ F,0,0,1,0,7,0,1 @ F,0,0,1,0,7,0,1 @ F,0,0,1,0,7,0,1 @ F,0,0,1,0,7,0,1 @ F,0,0,1,0,7,0,1 | F,0,0,1,0,7,0,1 @ F,0,0,1,0,7,0,1 @ F,0,0,1,0,7,0,1 @ F,0,0,1,0,7,0,1 @ F,0,0,1,0,7,0,1 @ F,0,0,1,0,7,0,1 @ F,0,0,1,0,7,0,1 | F,0,0,1,0,7,0,1 @ F,0,0,1,0,7,0,1 @ F,0,0,1,0,7,0,1 @ F,0,0,1,0,7,0,1 @ F,0,0,1,0,7,0,1 @ F,0,0,1,0,7,0,1 @ F,0,0,1,0,7,0,1 @ F,0,0,1,0,7,0,1 @ F,0,0,1,0,7,0,1 @ F,0,0,1,0,7,0,1 | F,0,0,1,0,7,0,1 @ F,0,0,1,0,7,0,1 @ F,0,0,1,0,7,0,1"
       unit="px"
       method="auto"
       mode="F"
       radius="7"
       chamfer_steps="1"
       flexible="false"
       use_knot_distance="true"
       apply_no_radius="true"
       apply_with_radius="true"
       only_selected="false"
       hide_knots="false"
       nodesatellites_param="F,0,0,1,0,7,0,1 @ F,0,0,1,0,7,0,1 @ F,0,0,1,0,7,0,1 @ F,0,0,1,0,7,0,1 @ F,0,0,1,0,7,0,1 @ F,0,0,1,0,7,0,1 @ F,0,0,1,0,7,0,1 @ F,0,0,1,0,7,0,1 @ F,0,0,1,0,7,0,1 @ F,0,0,1,0,7,0,1 @ F,0,0,1,0,7,0,1 @ F,0,0,1,0,7,0,1 @ F,0,0,1,0,7,0,1 @ F,0,0,1,0,7,0,1 @ F,0,0,1,0,7,0,1 @ F,0,0,1,0,7,0,1 @ F,0,0,1,0,7,0,1 @ F,0,0,1,0,7,0,1 @ F,0,0,1,0,7,0,1 @ F,0,0,1,0,7,0,1 @ F,0,0,1,0,7,0,1 @ F,0,0,1,0,7,0,1 @ F,0,0,1,0,7,0,1 @ F,0,0,1,0,7,0,1 @ F,0,0,1,0,7,0,1 @ F,0,0,1,0,7,0,1 @ F,0,0,1,0,7,0,1 @ F,0,0,1,0,7,0,1 @ F,0,0,1,0,7,0,1 @ F,0,0,1,0,7,0,1 @ F,0,0,1,0,7,0,1 @ F,0,0,1,0,7,0,1 @ F,0,0,1,0,7,0,1 @ F,0,0,1,0,7,0,1 @ F,0,0,1,0,7,0,1 | F,0,0,1,0,7,0,1 @ F,0,0,1,0,7,0,1 @ F,0,0,1,0,7,0,1 @ F,0,0,1,0,7,0,1 @ F,0,0,1,0,7,0,1 @ F,0,0,1,0,7,0,1 @ F,0,0,1,0,7,0,1 @ F,0,0,1,0,7,0,1 @ F,0,0,1,0,7,0,1 @ F,0,0,1,0,7,0,1 @ F,0,0,1,0,7,0,1 @ F,0,0,1,0,7,0,1 @ F,0,0,1,0,7,0,1 @ F,0,0,1,0,7,0,1 | F,0,0,1,0,7,0,1 @ F,0,0,1,0,7,0,1 @ F,0,0,1,0,7,0,1 @ F,0,0,1,0,7,0,1 @ F,0,0,1,0,7,0,1 @ F,0,0,1,0,7,0,1 @ F,0,0,1,0,7,0,1 @ F,0,0,1,0,7,0,1 @ F,0,0,1,0,7,0,1 @ F,0,0,1,0,7,0,1 | F,0,0,1,0,7,0,1 @ F,0,0,1,0,7,0,1 @ F,0,0,1,0,7,0,1 @ F,0,0,1,0,7,0,1 @ F,0,0,1,0,7,0,1 @ F,0,0,1,0,7,0,1 @ F,0,0,1,0,7,0,1 @ F,0,0,1,0,7,0,1 @ F,0,0,1,0,7,0,1 @ F,0,0,1,0,7,0,1 | F,0,0,1,0,7,0,1 @ F,0,0,1,0,7,0,1 @ F,0,0,1,0,7,0,1 @ F,0,0,1,0,7,0,1 @ F,0,0,1,0,7,0,1 @ F,0,0,1,0,7,0,1 @ F,0,0,1,0,7,0,1 | F,0,0,1,0,7,0,1 @ F,0,0,1,0,7,0,1 @ F,0,0,1,0,7,0,1 @ F,0,0,1,0,7,0,1 @ F,0,0,1,0,7,0,1 @ F,0,0,1,0,7,0,1 @ F,0,0,1,0,7,0,1 @ F,0,0,1,0,7,0,1 @ F,0,0,1,0,7,0,1 | F,0,0,1,0,7,0,1 @ F,0,0,1,0,7,0,1 @ F,0,0,1,0,7,0,1 @ F,0,0,1,0,7,0,1 @ F,0,0,1,0,7,0,1 @ F,0,0,1,0,7,0,1 @ F,0,0,1,0,7,0,1 | F,0,0,1,0,7,0,1 @ F,0,0,1,0,7,0,1 @ F,0,0,1,0,7,0,1 @ F,0,0,1,0,7,0,1 @ F,0,0,1,0,7,0,1 @ F,0,0,1,0,7,0,1 @ F,0,0,1,0,7,0,1 @ F,0,0,1,0,7,0,1 @ F,0,0,1,0,7,0,1 @ F,0,0,1,0,7,0,1 | F,0,0,1,0,7,0,1 @ F,0,0,1,0,7,0,1 @ F,0,0,1,0,7,0,1" />
    <inkscape:path-effect
       effect="fillet_chamfer"
       id="path-effect9330"
       is_visible="true"
       lpeversion="1"
       satellites_param="F,0,0,1,0,1,0,1 @ F,0,0,1,0,1,0,1 @ F,0,0,1,0,1,0,1 | F,0,0,1,0,1,0,1 @ F,0,0,1,0,1,0,1 @ F,0,0,1,0,1,0,1 @ F,0,0,1,0,1,0,1"
       unit="px"
       method="auto"
       mode="F"
       radius="1"
       chamfer_steps="1"
       flexible="false"
       use_knot_distance="true"
       apply_no_radius="true"
       apply_with_radius="true"
       only_selected="false"
       hide_knots="false"
       nodesatellites_param="F,0,0,1,0,1,0,1 @ F,0,0,1,0,1,0,1 @ F,0,0,1,0,1,0,1 | F,0,0,1,0,1,0,1 @ F,0,0,1,0,1,0,1 @ F,0,0,1,0,1,0,1 @ F,0,0,1,0,1,0,1" />
    <inkscape:path-effect
       effect="fillet_chamfer"
       id="path-effect9292"
       is_visible="true"
       lpeversion="1"
       satellites_param="F,0,0,1,0,0,0,1 @ F,0,0,1,0,0,0,1 @ F,0,0,1,0,0,0,1 @ F,0,0,1,0,0,0,1"
       unit="px"
       method="auto"
       mode="F"
       radius="0"
       chamfer_steps="1"
       flexible="false"
       use_knot_distance="true"
       apply_no_radius="true"
       apply_with_radius="true"
       only_selected="false"
       hide_knots="false"
       nodesatellites_param="F,0,0,1,0,0,0,1 @ F,0,0,1,0,0,0,1 @ F,0,0,1,0,0,0,1 @ F,0,0,1,0,0,0,1" />
    <inkscape:path-effect
       effect="fillet_chamfer"
       id="path-effect9290"
       is_visible="true"
       lpeversion="1"
       satellites_param="F,0,0,1,0,4,0,1 @ F,0,0,1,0,4,0,1 @ F,0,0,1,0,4,0,1 @ F,0,0,1,0,4,0,1 @ F,0,0,1,0,4,0,1"
       unit="px"
       method="auto"
       mode="F"
       radius="4"
       chamfer_steps="1"
       flexible="false"
       use_knot_distance="true"
       apply_no_radius="true"
       apply_with_radius="true"
       only_selected="false"
       hide_knots="false"
       nodesatellites_param="F,0,0,1,0,4,0,1 @ F,0,0,1,0,4,0,1 @ F,0,0,1,0,4,0,1 @ F,0,0,1,0,4,0,1 @ F,0,0,1,0,4,0,1" />
    <inkscape:path-effect
       effect="fillet_chamfer"
       id="path-effect9170"
       is_visible="true"
       lpeversion="1"
       satellites_param="F,0,0,1,0,8,0,1 @ F,0,0,1,0,8,0,1 @ F,0,0,1,0,8,0,1"
       unit="px"
       method="auto"
       mode="F"
       radius="8"
       chamfer_steps="1"
       flexible="false"
       use_knot_distance="true"
       apply_no_radius="true"
       apply_with_radius="true"
       only_selected="false"
       hide_knots="false"
       nodesatellites_param="F,0,0,1,0,8,0,1 @ F,0,0,1,0,8,0,1 @ F,0,0,1,0,8,0,1" />
    <inkscape:path-effect
       effect="join_type"
       id="path-effect10727"
       is_visible="true"
       lpeversion="1"
       linecap_type="round"
       line_width="9.85"
       linejoin_type="round"
       miter_limit="100"
       attempt_force_join="false" />
    <inkscape:path-effect
       effect="fillet_chamfer"
       id="path-effect10725"
       is_visible="true"
       lpeversion="1"
       satellites_param="F,0,0,1,0,0,0,1 @ F,0,0,1,0,0,0,1 @ F,0,0,1,0,0,0,1 @ F,0,0,1,0,0,0,1 @ F,0,0,1,0,0,0,1 @ F,0,0,1,0,0,0,1"
       unit="px"
       method="auto"
       mode="F"
       radius="0"
       chamfer_steps="1"
       flexible="false"
       use_knot_distance="true"
       apply_no_radius="true"
       apply_with_radius="true"
       only_selected="false"
       hide_knots="false"
       nodesatellites_param="F,0,0,1,0,0,0,1 @ F,0,0,1,0,0,0,1 @ F,0,0,1,0,0,0,1 @ F,0,0,1,0,0,0,1 @ F,0,0,1,0,0,0,1 @ F,0,0,1,0,0,0,1" />
    <clipPath
       clipPathUnits="userSpaceOnUse"
       id="clipEmfPath1">
      <path
         d="M 67.274331,67.274331 H 622.53858 V 271.10551 H 67.274331 Z"
         id="path1325" />
    </clipPath>
    <pattern
       id="EMFhbasepattern"
       patternUnits="userSpaceOnUse"
       width="6"
       height="6"
       x="0"
       y="0" />
    <clipPath
       clipPathUnits="userSpaceOnUse"
       id="clipEmfPath1-2">
      <path
         d="M 1.0040945,1.0040945 L 424.73197,1.0040945 L 424.73197,424.73197 L 1.0040945,424.73197 z"
         id="path3711" />
    </clipPath>
    <clipPath
       clipPathUnits="userSpaceOnUse"
       id="clipEmfPath2">
      <path
         d=""
         id="path3714" />
    </clipPath>
    <pattern
       id="EMFhbasepattern-6"
       patternUnits="userSpaceOnUse"
       width="6"
       height="6"
       x="0"
       y="0" />
    <clipPath
       clipPathUnits="userSpaceOnUse"
       id="clipEmfPath1-9">
      <path
         d="M 1.0040945,1.0040945 L 424.73197,1.0040945 L 424.73197,424.73197 L 1.0040945,424.73197 z"
         id="path3892" />
    </clipPath>
    <clipPath
       clipPathUnits="userSpaceOnUse"
       id="clipEmfPath2-1">
      <path
         d=""
         id="path3895" />
    </clipPath>
    <pattern
       id="EMFhbasepattern-9"
       patternUnits="userSpaceOnUse"
       width="6"
       height="6"
       x="0"
       y="0" />
    <clipPath
       clipPathUnits="userSpaceOnUse"
       id="clipEmfPath1-7">
      <path
         d="M 1.0040945,1.0040945 L 67.274331,1.0040945 L 67.274331,67.274331 L 1.0040945,67.274331 z"
         id="path34836" />
    </clipPath>
    <clipPath
       clipPathUnits="userSpaceOnUse"
       id="clipEmfPath2-2">
      <path
         d=""
         id="path34839" />
    </clipPath>
    <pattern
       id="EMFhbasepattern-8"
       patternUnits="userSpaceOnUse"
       width="6"
       height="6"
       x="0"
       y="0" />
    <filter
       style="color-interpolation-filters:sRGB;"
       inkscape:label="Drop Shadow"
       id="filter3270"
       x="-0.029480313"
       y="-0.029480313"
       width="1.0589606"
       height="1.0589606">
      <feFlood
         flood-opacity="1"
         flood-color="rgb(0,0,0)"
         result="flood"
         id="feFlood3260" />
      <feComposite
         in="flood"
         in2="SourceGraphic"
         operator="in"
         result="composite1"
         id="feComposite3262" />
      <feGaussianBlur
         in="composite1"
         stdDeviation="1.2999999999999998"
         result="blur"
         id="feGaussianBlur3264" />
      <feOffset
         dx="0"
         dy="0"
         result="offset"
         id="feOffset3266" />
      <feComposite
         in="SourceGraphic"
         in2="offset"
         operator="over"
         result="composite2"
         id="feComposite3268" />
      <feBlend
         mode="normal"
         in2="composite2"
         id="feBlend3524" />
    </filter>
    <filter
       style="color-interpolation-filters:sRGB;"
       inkscape:label="Drop Shadow"
       id="filter3456"
       x="-0.066028981"
       y="-0.065992263"
       width="1.132058"
       height="1.1319845">
      <feFlood
         flood-opacity="0.53286384976525825"
         flood-color="rgb(0,0,0)"
         result="flood"
         id="feFlood3446" />
      <feComposite
         in="flood"
         in2="SourceGraphic"
         operator="in"
         result="composite1"
         id="feComposite3448" />
      <feGaussianBlur
         in="composite1"
         stdDeviation="0.40000000000000002"
         result="blur"
         id="feGaussianBlur3450" />
      <feOffset
         dx="0"
         dy="0"
         result="offset"
         id="feOffset3452" />
      <feComposite
         in="SourceGraphic"
         in2="offset"
         operator="over"
         result="composite2"
         id="feComposite3454" />
    </filter>
    <inkscape:path-effect
       effect="fill_between_many"
       method="originald"
       linkedpaths="#path1901,0,1|#path1899,0,1"
       id="path-effect1903" />
    <inkscape:path-effect
       effect="fill_between_many"
       method="originald"
       linkedpaths="#path970,0,1|#path972,0,1"
       id="path-effect1907" />
  </defs>
  <sodipodi:namedview
     id="base"
     pagecolor="#ffffff"
     bordercolor="#666666"
     borderopacity="1.0"
     inkscape:pageopacity="0.0"
     inkscape:pageshadow="2"
     inkscape:zoom="1.28"
     inkscape:cx="405.07812"
     inkscape:cy="185.9375"
     inkscape:document-units="px"
     inkscape:current-layer="layer1"
     inkscape:document-rotation="0"
     showgrid="true"
     inkscape:window-width="1920"
     inkscape:window-height="1017"
     inkscape:window-x="-8"
     inkscape:window-y="-8"
     inkscape:window-maximized="1"
     units="px"
     inkscape:showpageshadow="false"
     inkscape:pagecheckerboard="0"
     inkscape:snap-global="false"
     inkscape:object-paths="true"
     inkscape:snap-bbox="true"
     inkscape:bbox-nodes="true"
     inkscape:snap-bbox-edge-midpoints="true"
     objecttolerance="20"
     guidetolerance="20"
     inkscape:snap-perpendicular="false"
     inkscape:snap-tangential="false"
     gridtolerance="10"
     showguides="false"
     inkscape:deskcolor="#d1d1d1">
    <inkscape:grid
       type="xygrid"
       id="grid1574"
       spacingx="2.6458333"
       spacingy="2.6458333"
       color="#96988b"
       opacity="0.1254902"
       empcolor="#7d7d7b"
       empopacity="0.52156863"
       visible="true" />
  </sodipodi:namedview>
  <metadata
     id="metadata5">
    <rdf:RDF>
      <cc:Work
         rdf:about="">
        <dc:format>image/svg+xml</dc:format>
        <dc:type
           rdf:resource="http://purl.org/dc/dcmitype/StillImage" />
      </cc:Work>
    </rdf:RDF>
  </metadata>
  <g
     inkscape:label="Слой 1"
     inkscape:groupmode="layer"
     id="layer1">
    <path
       id="path3102"
       style="fill:#000000;fill-opacity:0.448454;stroke:none;stroke-width:0.845812;stroke-linecap:round;stroke-linejoin:round;stop-color:#000000"
       d="m 17.404393,128.9379 a 7.746343,7.750661 0 0 1 -7.7463465,7.75066 7.746343,7.750661 0 0 1 -7.7463429,-7.75066 7.746343,7.750661 0 0 1 7.7463429,-7.75066 7.746343,7.750661 0 0 1 7.7463465,7.75066 z" />
    <path
       id="path2846"
       style="fill:#8e3700;fill-opacity:1;stroke:none;stroke-width:0.845812;stroke-linecap:round;stroke-linejoin:round;stop-color:#000000"
       d="m 16.939616,128.27913 a 7.746343,7.750661 0 0 1 -7.7463468,7.75065 7.746343,7.750661 0 0 1 -7.7463427,-7.75065 7.746343,7.750661 0 0 1 7.7463427,-7.75066 7.746343,7.750661 0 0 1 7.7463468,7.75066 z" />
    <path
       style="fill:#000000;fill-opacity:0.297251;stroke:none;stroke-width:0.281937px;stroke-linecap:butt;stroke-linejoin:miter;stroke-opacity:1"
       d="M 3.2053016,132.98648 C 0.97909857,123.7261 9.785586,120.51798 14.226715,124.19066 l -1.122275,-1.51326 -3.9111708,-1.12196 -4.2099577,0.77953 -2.271479,3.18579 -0.8001265,3.32029 0.309064,2.39101 z"
       id="path3966"
       sodipodi:nodetypes="ccccccccc" />
    <path
       id="path3064"
       style="fill:none;stroke:#ff3535;stroke-width:1.40968;stroke-linecap:round;stroke-linejoin:round;stroke-miterlimit:4;stroke-dasharray:none;stroke-opacity:1;stop-color:#000000"
       d="m 16.164981,128.27913 a 6.9717074,6.9755946 0 0 1 -6.9717118,6.9756 6.9717074,6.9755946 0 0 1 -6.9717064,-6.9756 6.9717074,6.9755946 0 0 1 6.9717064,-6.97559 6.9717074,6.9755946 0 0 1 6.9717118,6.97559 z" />
    <path
       style="fill:#000000;fill-opacity:0.528399;stroke:none;stroke-width:0.0379422px;stroke-linecap:butt;stroke-linejoin:miter;stroke-opacity:1"
       d="m 5.8194084,130.8848 1.3360129,-1.36392 c 0,0 1.0423044,0.76909 1.8909719,0.73349 0.8486686,-0.0356 1.2714878,-0.41466 1.2714878,-0.41466 l -2.0970331,-2.12555 -0.7948437,0.79707 -0.9808685,-0.99192 1.7418885,-1.71814 1.7926254,0.0177 -1.1838076,1.25762 2.097033,2.21409 c 0,0 0.966011,-0.76106 0.730269,-1.85334 -0.235745,-1.0923 -2.4045135,-2.96453 -2.4045135,-2.96453 1.5830635,0.43728 2.7929395,1.72351 3.0887225,2.68919 0.295784,0.96567 0.194883,1.94109 -0.636547,2.96124 l 0.76102,0.76165 -0.574994,0.60223 -0.811754,-0.81477 c 0,0 -0.893539,0.5547 -1.7479802,0.54908 -0.8544399,-0.005 -1.2516785,-0.2391 -1.8541805,-0.74394 l -0.9808708,1.02735 z"
       id="path5675"
       sodipodi:nodetypes="cczcccccccczczcccczccc" />
    <path
       style="fill:#ff0700;fill-opacity:1;stroke:none;stroke-width:0.432774;stroke-linecap:butt;stroke-linejoin:miter;stroke-miterlimit:4;stroke-dasharray:none;stroke-opacity:1"
       d="m 5.7818593,130.50587 1.336013,-1.36395 c 0,0 1.0423044,0.76911 1.890972,0.7335 0.8486685,-0.0356 1.2714877,-0.41464 1.2714877,-0.41464 l -2.0970331,-2.12555 -0.7948437,0.79709 -0.9808695,-0.99194 1.7418894,-1.71813 1.7926251,0.0176 -1.1838083,1.25761 2.0970321,2.2141 c 0,0 0.966013,-0.76106 0.730268,-1.85337 -0.235744,-1.09229 -2.4045105,-2.96451 -2.4045105,-2.96451 1.5830625,0.43726 2.7929385,1.72351 3.0887215,2.68918 0.295784,0.96568 0.194882,1.94111 -0.636548,2.96123 l 0.76102,0.76165 -0.574994,0.60223 -0.811753,-0.81478 c 0,0 -0.893539,0.55472 -1.7479792,0.54907 -0.8544399,-0.005 -1.2516785,-0.23909 -1.8541806,-0.74392 l -0.9808707,1.02735 z"
       id="path3674-4"
       sodipodi:nodetypes="cczcccccccczczcccczccc" />
    <path
       id="path6450"
       style="fill:#000000;fill-opacity:0.448454;stroke:none;stroke-width:0.845812;stroke-linecap:round;stroke-linejoin:round;stop-color:#000000"
       d="m 43.774262,128.8676 a 7.746343,7.750661 0 0 1 -7.746345,7.75067 7.746343,7.750661 0 0 1 -7.746344,-7.75067 7.746343,7.750661 0 0 1 7.746344,-7.75066 7.746343,7.750661 0 0 1 7.746345,7.75066 z" />
    <path
       id="path6452"
       style="fill:#939492;fill-opacity:1;stroke:none;stroke-width:0.845812;stroke-linecap:round;stroke-linejoin:round;stop-color:#000000"
       d="m 43.309485,128.20883 a 7.746343,7.750661 0 0 1 -7.746345,7.75066 7.746343,7.750661 0 0 1 -7.746344,-7.75066 7.746343,7.750661 0 0 1 7.746344,-7.75066 7.746343,7.750661 0 0 1 7.746345,7.75066 z" />
    <path
       style="fill:#000000;fill-opacity:0.297251;stroke:none;stroke-width:0.281937px;stroke-linecap:butt;stroke-linejoin:miter;stroke-opacity:1"
       d="m 29.575172,132.91618 c -2.226204,-9.26038 6.580285,-12.46849 11.021412,-8.79582 l -1.122274,-1.51325 -3.91117,-1.12197 -4.209958,0.77953 -2.27148,3.18579 -0.800125,3.32029 0.309063,2.39101 z"
       id="path6454"
       sodipodi:nodetypes="ccccccccc" />
    <path
       id="path6456"
       style="fill:none;stroke:#e2e5e4;stroke-width:1.40968;stroke-linecap:round;stroke-linejoin:round;stroke-miterlimit:4;stroke-dasharray:none;stroke-opacity:1;stop-color:#000000"
       d="m 42.534849,128.20883 a 6.9717074,6.9755946 0 0 1 -6.971709,6.9756 6.9717074,6.9755946 0 0 1 -6.971707,-6.9756 6.9717074,6.9755946 0 0 1 6.971707,-6.97559 6.9717074,6.9755946 0 0 1 6.971709,6.97559 z" />
    <path
       id="path7234"
       style="fill:#000000;fill-opacity:0.528399;stroke:none;stroke-width:1.40968;stroke-linecap:round;stroke-linejoin:round;stroke-miterlimit:4;stroke-dasharray:none;stroke-opacity:1;stop-color:#000000"
       d="m 34.737145,124.49772 0.831984,2.4971 c 0.02341,0.0703 -0.01493,0.14561 -0.08243,0.17592 -0.299512,0.1345 -0.539469,0.37459 -0.673888,0.67427 -0.0303,0.0676 -0.105611,0.10592 -0.175832,0.0825 l -2.495709,-0.83245 a 0.09660193,0.0966557 0 0 0 -0.127151,0.0918 v 2.41395 a 0.09660193,0.0966557 0 0 0 0.127152,0.0916 l 2.495709,-0.83248 c 0.07021,-0.0234 0.145535,0.0149 0.175832,0.0825 0.134419,0.2997 0.374376,0.53978 0.673887,0.67428 0.06749,0.0304 0.105845,0.10571 0.08243,0.17593 l -0.831984,2.4971 a 0.09660193,0.0966557 0 0 0 0.09164,0.12723 h 2.412577 a 0.09660193,0.0966557 0 0 0 0.09164,-0.12723 l -0.831983,-2.49713 c -0.02341,-0.0703 0.01493,-0.14562 0.08242,-0.17593 0.299512,-0.1345 0.539469,-0.3746 0.673887,-0.6743 0.03029,-0.0675 0.10561,-0.10592 0.175833,-0.0825 l 2.495707,0.83246 a 0.09660193,0.0966557 0 0 0 0.127153,-0.0916 v -2.41393 a 0.09660482,0.09665859 0 0 0 -0.127154,-0.0917 l -2.495181,0.83219 c -0.07021,0.0234 -0.145529,-0.0148 -0.175816,-0.0825 -0.134428,-0.29982 -0.374495,-0.54003 -0.674157,-0.67452 -0.06752,-0.0304 -0.105856,-0.10571 -0.08243,-0.17592 l 0.831726,-2.49657 a 0.09660482,0.09665859 0 0 0 -0.09165,-0.12723 H 34.82878 a 0.09660193,0.0966557 0 0 0 -0.09164,0.12723 z" />
    <path
       id="path6039"
       style="fill:#fff7ff;fill-opacity:1;stroke:none;stroke-width:1.40968;stroke-linecap:round;stroke-linejoin:round;stroke-miterlimit:4;stroke-dasharray:none;stroke-opacity:1;stop-color:#000000"
       d="m 34.373816,124.11919 0.831983,2.4971 c 0.02341,0.0703 -0.01492,0.1456 -0.08243,0.17592 -0.299512,0.1345 -0.539468,0.37459 -0.673887,0.67426 -0.0303,0.0676 -0.10561,0.10592 -0.175833,0.0825 l -2.495714,-0.83245 a 0.09660193,0.0966557 0 0 0 -0.127151,0.0916 v 2.41393 a 0.09660193,0.0966557 0 0 0 0.127151,0.0916 l 2.495709,-0.83245 c 0.07021,-0.0235 0.145537,0.0148 0.175834,0.0825 0.134419,0.29968 0.374375,0.53977 0.673884,0.67428 0.0675,0.0304 0.105845,0.1057 0.08243,0.17591 l -0.831982,2.4971 a 0.09660193,0.0966557 0 0 0 0.09164,0.12723 h 2.412577 a 0.09660193,0.0966557 0 0 0 0.09164,-0.12723 l -0.831983,-2.49712 c -0.02341,-0.0703 0.01493,-0.14561 0.08242,-0.17592 0.299512,-0.1345 0.539469,-0.37459 0.673886,-0.67427 0.0303,-0.0674 0.105611,-0.10592 0.175833,-0.0825 l 2.495709,0.83245 a 0.09660193,0.0966557 0 0 0 0.127151,-0.0916 v -2.41393 a 0.09660482,0.09665859 0 0 0 -0.127152,-0.0918 l -2.495182,0.8322 c -0.07021,0.0234 -0.145529,-0.0148 -0.175815,-0.0825 -0.13443,-0.29982 -0.374495,-0.54002 -0.674158,-0.67453 -0.0675,-0.0304 -0.105856,-0.10571 -0.08243,-0.17591 l 0.831728,-2.49657 a 0.09660482,0.09665859 0 0 0 -0.09165,-0.12722 h -2.412577 a 0.09660193,0.0966557 0 0 0 -0.09164,0.12722 z" />
    <path
       id="path1097"
       style="fill:none;fill-opacity:1;stroke:#7e0000;stroke-width:0.281938;stroke-linecap:round;stroke-linejoin:round;stroke-miterlimit:4;stroke-dasharray:none;stroke-opacity:1;stop-color:#000000"
       d="m 16.939616,128.27913 a 7.746343,7.750661 0 0 1 -7.7463468,7.75065 7.746343,7.750661 0 0 1 -7.7463427,-7.75065 7.746343,7.750661 0 0 1 7.7463427,-7.75066 7.746343,7.750661 0 0 1 7.7463468,7.75066 z" />
    <path
       id="path1369"
       style="fill:none;fill-opacity:1;stroke:#56605d;stroke-width:0.281938;stroke-linecap:round;stroke-linejoin:round;stroke-miterlimit:4;stroke-dasharray:none;stroke-opacity:1;stop-color:#000000"
       d="m 43.309485,128.20883 a 7.746343,7.750661 0 0 1 -7.746345,7.75066 7.746343,7.750661 0 0 1 -7.746344,-7.75066 7.746343,7.750661 0 0 1 7.746344,-7.75066 7.746343,7.750661 0 0 1 7.746345,7.75066 z" />
    <path
       id="path5698"
       style="fill:none;fill-opacity:1;stroke:#7e0000;stroke-width:0.226522;stroke-linecap:round;stroke-linejoin:round;stroke-miterlimit:4;stroke-dasharray:none;stroke-opacity:1;stop-color:#000000"
       d="m 15.417031,128.27913 a 6.2237586,6.2272279 0 0 1 -6.2237614,6.22722 6.2237586,6.2272279 0 0 1 -6.2237583,-6.22722 6.2237586,6.2272279 0 0 1 6.2237583,-6.22723 6.2237586,6.2272279 0 0 1 6.2237614,6.22723 z" />
    <path
       id="path5768"
       style="fill:none;fill-opacity:1;stroke:#56605d;stroke-width:0.230244;stroke-linecap:round;stroke-linejoin:round;stroke-miterlimit:4;stroke-dasharray:none;stroke-opacity:1;stop-color:#000000"
       d="m 41.889183,128.20883 a 6.3260413,6.3295676 0 0 1 -6.326043,6.32957 6.3260413,6.3295676 0 0 1 -6.326042,-6.32957 6.3260413,6.3295676 0 0 1 6.326042,-6.32957 6.3260413,6.3295676 0 0 1 6.326043,6.32957 z" />
    <path
       id="rect2768"
       style="fill:#7f8d7c;stroke:#844141;stroke-width:0.423392;stroke-linecap:round;stroke-linejoin:round;stop-color:#000000"
       d="m 203.72916,15.875 c -1.80696,9.1e-5 -7.48392,-2.960366 -13.22916,-2.645834 -5.74525,0.314533 -10.68502,4.753399 -21.16667,4.970403 -10.48165,0.217008 -21.85341,-4.702756 -34.39583,-5.081411 -12.54243,-0.378652 -27.21499,3.467848 -39.687502,3.387608 C 82.777501,16.425526 72.325677,17.5974 60.854166,15.875 49.822078,14.218577 37.041666,13.229166 26.458333,16.505766 15.875,19.782366 5.2916348,13.118158 0,13.118158 c -5.2916348,0 -10.603444,-0.07293 -11.244791,0 -1.401544,0.159388 -1.973114,15.537858 0,16.938037 1.9731053,1.400184 5.9531562,0 11.244791,0 5.2916348,0 8.9091619,-2.946043 15.875,-3.387607 6.965836,-0.441567 19.15544,4.806104 29.104166,5.081412 9.948726,0.275303 17.374662,0.859512 29.104166,-3.387608 C 87.428715,23.53018 108.0181,26.85877 119.0625,31.75 c 11.00825,4.875221 16.16383,-3.240137 26.45833,-3.387608 10.2945,-0.147472 25.40326,1.103923 34.39583,0.741774 8.99258,-0.362154 11.41115,-0.104323 18.52084,-0.741774 3.36548,-0.301751 8.62102,1.621872 13.22916,1.693803 5.12661,0.08002 9.49999,-1.672857 10.58334,-1.693803 2.05708,-0.03977 2.78898,-14.564641 0.66145,-15.244234 -1.04742,-0.334595 -5.96819,0.02649 -11.24479,0 -3.57034,-0.01793 -4.48785,2.756667 -7.9375,2.756842 z M 39.687499,18.199569 c 5.845015,0 7.937502,4.677469 7.9375,5.612931 2e-6,0.935462 -2.092485,-2.225323 -7.9375,-2.225323 -5.845015,0 -10.583335,-0.758342 -10.583333,-1.693804 -2e-6,-0.935462 4.738318,-1.693804 10.583333,-1.693804 z m 52.916666,1.693804 c 3.653134,0 6.614584,0.758342 6.614583,1.693804 10e-7,0.935462 -2.961449,1.693804 -6.614583,1.693804 -3.653134,0 -13.229167,1.466981 -13.229166,0.531519 -10e-7,-0.935462 9.576032,-3.919127 13.229166,-3.919127 z m 88.635415,0 c 5.11439,0 9.26042,0.758342 9.26042,1.693804 0,0.935462 -2.82311,2.225323 -7.9375,2.225323 -5.11439,0 -10.58334,-1.289861 -10.58334,-2.225323 0,-0.935462 4.14603,-1.693804 9.26042,-1.693804 z m -50.27083,1.693804 c 3.65313,0 6.61458,0.758342 6.61458,1.693804 0,0.935461 -2.96145,1.693803 -6.61458,1.693803 -3.65314,1e-6 -14.55208,-2.872655 -14.55208,-3.808118 -1e-5,-0.935462 10.89894,0.42051 14.55208,0.420511 z m 27.78125,0 c 5.11439,1e-6 9.26041,0.758342 9.26041,1.693804 0,0.935461 -4.14603,1.693802 -9.26041,1.693803 -5.11439,0 -13.22917,-2.872656 -13.22917,-3.808118 0,-0.935462 8.11478,0.420511 13.22917,0.420511 z M 56.885416,23.280981 c 3.653133,0 11.906249,-0.403943 11.90625,0.531519 10e-7,0.935462 -8.253116,2.856088 -11.90625,2.856088 -3.653134,0 -6.614584,-0.758342 -6.614583,-1.693804 10e-7,-0.935462 2.96145,-1.693803 6.614583,-1.693803 z"
       sodipodi:nodetypes="szsssszsccsssssssssssssssssssssssssssssssssssssssssss" />
    <path
       id="path4294"
       style="fill:#7f8d7c;stroke:#844141;stroke-width:0.423392;stroke-linecap:round;stroke-linejoin:round;stop-color:#000000"
       d="m 198.4375,39.687499 c -1.80696,9.1e-5 -9.00805,-2.793843 -10.58334,-2.645833 -9.02708,0.84817 -8.03918,4.753398 -18.52083,4.970402 -10.48165,0.217008 -23.94812,-12.031299 -34.39583,-5.081411 -11.18989,7.443586 -26.68981,6.505175 -39.687503,3.387608 -12.128747,-2.909145 -24.492333,8.055179 -34.395831,2.015068 -11.204847,-6.8338 -30.693391,0.335717 -39.6875,0 C 17.706654,42.155427 5.2916333,36.930657 -1.5e-6,36.930657 c -5.2916348,0 -10.6034435,-0.07293 -11.2447905,0 -1.401544,0.159388 -1.973114,15.537858 0,16.938037 1.9731048,1.400184 5.9531557,0 11.2447905,0 5.2916348,0 16.8466625,4.781203 23.8125015,4.339639 6.965836,-0.441567 8.572107,-5.566975 18.520833,-5.291667 9.948726,0.275303 20.382797,9.73926 32.370115,6.28622 10.198472,-2.93775 24.068649,-5.319554 36.090822,-4.673916 13.48245,0.724061 24.22535,4.821387 34.51985,4.673916 10.2945,-0.147472 25.60997,-5.924071 34.60254,-6.28622 8.99258,-0.362154 10.9708,4.739521 18.10743,4.588867 4.50236,-0.09504 9.03387,-3.636839 13.64257,-3.636839 6.46832,0 9.49999,-1.672857 10.58334,-1.693803 2.05708,-0.03977 2.78898,-14.564641 0.66145,-15.244234 -1.04742,-0.334595 -5.96819,0.02649 -11.24479,0 -3.57034,-0.01793 -9.77951,2.756667 -13.22916,2.756842 z M 39.687498,42.012068 c 5.845015,0 10.583336,0.758342 10.583334,1.693804 2e-6,0.935462 -4.738319,1.693804 -10.583334,1.693804 -5.845015,0 -13.229167,3.160785 -13.229165,2.225323 -2e-6,-0.935462 7.38415,-5.612931 13.229165,-5.612931 z m 52.916665,1.693804 c 3.653134,0 7.937507,2.983665 7.937507,3.919127 0,0.935463 -4.284373,-0.531519 -7.937507,-0.531519 -3.653134,0 -6.614583,-0.758342 -6.614582,-1.693804 -10e-7,-0.935462 2.961448,-1.693804 6.614582,-1.693804 z m 88.635417,0 c 5.11439,0 9.26042,0.758342 9.26042,1.693804 0,0.935462 -4.14603,1.693804 -9.26042,1.693804 -5.11439,0 -9.26042,-0.758342 -9.26042,-1.693804 0,-0.935462 4.14603,-1.693804 9.26042,-1.693804 z m -50.27083,1.693804 c 3.65313,0 6.61458,0.758342 6.61458,1.693804 0,0.935461 -2.96145,1.693803 -6.61458,1.693803 -3.65314,10e-7 -6.61459,-0.758341 -6.61459,-1.693803 0,-0.935463 2.96145,-1.693805 6.61459,-1.693804 z m 27.78125,0 c 5.11439,10e-7 13.22917,3.935695 13.22916,4.871157 0,0.935461 -8.11478,-1.483551 -13.22916,-1.48355 -5.11439,0 -9.26042,-0.758341 -9.26042,-1.693803 0,-0.935462 4.14603,-1.693804 9.26042,-1.693804 z M 56.885415,47.09348 c 3.904721,-0.03694 14.035732,-0.331283 6.614583,1.693803 -0.902465,0.246265 -2.961449,1.693804 -6.614583,1.693804 -3.653134,0 -6.614584,-0.758342 -6.614583,-1.693804 1e-6,-0.935462 2.961614,-1.659245 6.614583,-1.693803 z"
       sodipodi:nodetypes="sssssscscssssssssssssssssssssssssssssssssssssssssssss" />
    <path
       style="fill:none;stroke:#000000;stroke-width:0.264583px;stroke-linecap:butt;stroke-linejoin:miter;stroke-opacity:1;fill-opacity:1"
       d="m 92.604166,97.104166 v 7.229164 a 1.5,1.5 45 0 0 1.5,1.5 h 10.229164 a 1.5,1.5 135 0 0 1.5,-1.5 V 94.104166 a 1.5,1.5 45 0 0 -1.5,-1.5 h -7.229164 a 4.5,4.5 135 0 0 -4.5,4.5 z"
       id="path6376"
       inkscape:path-effect="#path-effect6378"
       inkscape:original-d="M 92.604166,92.604166 V 105.83333 H 105.83333 V 92.604166 Z" />
    <path
       id="path6448"
       style="fill:none;stroke:#000000;stroke-width:0.529167;stroke-linecap:round;stroke-linejoin:round;stop-color:#000000"
       inkscape:transform-center-x="1.6243758"
       inkscape:transform-center-y="-0.57607208"
       d="m 68.944766,68.961053 c 0.01097,3.815296 0.156952,8.464373 0.09438,13.449738 -0.02075,1.653433 -1.228805,2.324096 -2.671695,1.509714 -3.852719,-2.174515 -7.781265,-4.333614 -11.674668,-6.671465 -1.419327,-0.852256 -1.36797,-2.193433 0.08157,-2.995889 4.166714,-2.306676 7.93733,-4.611308 11.612464,-6.781044 1.425224,-0.841428 2.553188,-0.167838 2.557954,1.488946 z"
       inkscape:path-effect="#path-effect6451"
       inkscape:original-d="m 68.974895,65.961319 c -0.135457,4.890552 0.23425,11.906856 0,19.442824 -5.513341,-3.169045 -11.237854,-6.213799 -16.83798,-9.721413 6.265428,-3.320508 11.577288,-6.693913 16.83798,-9.721411 z"
       sodipodi:nodetypes="cccc" />
  </g>
</svg>
